<?xml version="1.0" encoding="UTF-8" standalone="no"?>
<!-- Created with Inkscape (http://www.inkscape.org/) -->

<svg
   xmlns:dc="http://purl.org/dc/elements/1.1/"
   xmlns:cc="http://creativecommons.org/ns#"
   xmlns:rdf="http://www.w3.org/1999/02/22-rdf-syntax-ns#"
   xmlns:svg="http://www.w3.org/2000/svg"
   xmlns="http://www.w3.org/2000/svg"
   xmlns:sodipodi="http://sodipodi.sourceforge.net/DTD/sodipodi-0.dtd"
   xmlns:inkscape="http://www.inkscape.org/namespaces/inkscape"
   version="1.1"
   width="1142.0017"
   height="697.96716"
   viewBox="0 0 1142.0017 697.96716"
   id="svg2"
   xml:space="preserve"
   style="overflow:visible"
   inkscape:version="0.91 r13725"
   sodipodi:docname="controller2.svg"><sodipodi:namedview
     pagecolor="#ffffff"
     bordercolor="#666666"
     borderopacity="1"
     objecttolerance="10"
     gridtolerance="10"
     guidetolerance="10"
     inkscape:pageopacity="0"
     inkscape:pageshadow="2"
     inkscape:window-width="1268"
     inkscape:window-height="788"
     id="namedview4191"
     showgrid="false"
     fit-margin-top="0"
     fit-margin-left="0"
     fit-margin-right="0"
     fit-margin-bottom="0"
     showguides="false"
     inkscape:zoom="0.464"
     inkscape:cx="573.84775"
     inkscape:cy="432.74979"
     inkscape:window-x="17"
     inkscape:window-y="0"
     inkscape:window-maximized="0"
     inkscape:current-layer="svg2" /><metadata
     id="metadata590"><rdf:RDF><cc:Work
         rdf:about=""><dc:format>image/svg+xml</dc:format><dc:type
           rdf:resource="http://purl.org/dc/dcmitype/StillImage" /><dc:title></dc:title></cc:Work></rdf:RDF></metadata><defs
     id="defs588" /><g
     id="Right_Trigger"
     transform="translate(-426.15225,-114.39641)" /><g
     id="Shape_23_1_"
     transform="translate(-426.15225,-114.39641)"><g
       id="Shape_23"><g
         id="g522" /></g></g><g
     id="Shape_26_1_"
     transform="translate(-426.15225,-114.39641)"><g
       id="Shape_26"><g
         id="g528" /></g></g><g
     id="g4193"
     transform="translate(-426.15225,-114.39641)"><g
       style="stroke:#000000;stroke-width:5;stroke-miterlimit:4;stroke-dasharray:none;stroke-opacity:1"
       id="Shape_1_1_"><g
         style="stroke:#000000;stroke-width:5;stroke-miterlimit:4;stroke-dasharray:none;stroke-opacity:1"
         id="Shape_1"><g
           style="stroke:#000000;stroke-width:5;stroke-miterlimit:4;stroke-dasharray:none;stroke-opacity:1"
           id="g42"><path
             style="fill:#ffffff;stroke:#000000;stroke-width:5;stroke-miterlimit:4;stroke-dasharray:none;stroke-opacity:1"
             id="path44"
             d="m 1541.95,465.9 c 0,0 -45.682,-136.815 -71.429,-174.57 -34.014,-49.878 -85.436,-106.057 -104.71,-113.992 -19.274,-7.935 -81.633,-9.301 -97.506,-2.5 -15.872,6.802 -67.66,53.145 -107.343,64.48 -39.683,11.335 -272.074,5.668 -303.82,1.134 -31.746,-4.534 -47.753,-5.435 -74.964,-23.572 -27.211,-18.137 -40.781,-40.408 -49.852,-44.942 -9.069,-4.534 -75.498,-3.9 -92.505,2.9 -17.007,6.802 -73.429,60.68 -115.379,129.827 -41.95,69.148 -86.697,221.056 -90.971,256.456 -7.937,65.748 -4.134,119.361 -2.134,130.361 2,11 16.959,86.645 72.929,110.19 72.516,30.507 175.672,-32.14 249.496,-61.058 76.927,-30.134 95.033,-27.595 148.73,-27.595 106.576,0 98.615,-1.133 205.216,-1.133 108.843,0 199.412,57.313 249.299,76.583 49.887,19.27 86.436,33.106 134.055,2.5 47.619,-30.606 66.76,-89.285 73.563,-148.231 C 1571.428,583.792 1541.95,465.9 1541.95,465.9 Z"
             inkscape:connector-curvature="0" /></g></g></g><g
       id="Shape_16_copy_2_1_"><g
         id="Shape_16_copy_2"><g
           id="g48"><ellipse
             style="fill:#f2f2f2"
             id="ellipse50"
             ry="107.348"
             rx="132.164"
             cy="631.73999"
             cx="825.89398" /></g></g></g><g
       id="Shape_16_copy_3_1_"><g
         id="Shape_16_copy_3"><g
           id="g54"><ellipse
             style="fill:#ffffff"
             id="ellipse56"
             ry="103.491"
             rx="127.415"
             cy="631.73999"
             cx="825.89398" /></g></g></g><g
       id="Shape_16_copy_4_1_"><g
         id="Shape_16_copy_4"><g
           id="g60"><ellipse
             style="fill:#f2f2f2"
             id="ellipse62"
             ry="90.323997"
             rx="121.673"
             cy="633.14697"
             cx="1163.479" /></g></g></g><g
       id="Shape_16_copy_5_1_"><g
         id="Shape_16_copy_5"><g
           id="g66"><ellipse
             style="fill:#ffffff"
             id="ellipse68"
             ry="87.079002"
             rx="117.301"
             cy="633.14801"
             cx="1163.479" /></g></g></g><g
       id="Shape_16_copy_6_1_"><g
         id="Shape_16_copy_6"><g
           id="g72"><path
             style="fill:#f2f2f2"
             id="path74"
             d="m 660.585,370.764 c -70.526,-12.48 -134.135,21.246 -142.073,75.328 -7.938,54.083 42.798,108.042 113.324,120.521 70.526,12.479 134.135,-21.246 142.073,-75.328 7.939,-54.083 -42.798,-108.042 -113.324,-120.521 z"
             inkscape:connector-curvature="0" /></g></g></g><g
       id="Shape_16_copy_7_1_"><g
         id="Shape_16_copy_7"><g
           id="g78"><path
             style="fill:#ffffff"
             id="path80"
             d="m 660.068,374.282 c -67.992,-12.031 -129.314,20.482 -136.968,72.622 -7.653,52.139 41.26,104.159 109.252,116.19 67.992,12.031 129.314,-20.482 136.968,-72.622 7.654,-52.138 -41.259,-104.159 -109.252,-116.19 z"
             inkscape:connector-curvature="0" /></g></g></g><g
       id="Shape_16_1_"><g
         id="Shape_16"><g
           id="g84"><ellipse
             id="ellipse86"
             ry="92.953003"
             rx="112.28"
             cy="646.14001"
             cx="824.29901" /></g></g></g><g
       id="Shape_16_copy_1_"><g
         id="Shape_16_copy"><g
           id="g90"><ellipse
             style="fill:#ffffff"
             id="ellipse92"
             ry="89.612999"
             rx="108.246"
             cy="646.14001"
             cx="824.29901" /></g></g></g><g
       id="Shape_12_1_"><g
         id="Shape_12"><g
           id="g96"><ellipse
             id="ellipse98"
             ry="60.362999"
             rx="83.491997"
             cy="649.54102"
             cx="1161.724" /></g></g></g><g
       id="Shape_12_copy_6_1_"><g
         id="Shape_12_copy_6"><g
           id="g102"><ellipse
             style="fill:#424242"
             id="ellipse104"
             ry="58.657001"
             rx="81.133003"
             cy="649.53998"
             cx="1161.724" /></g></g></g><g
       id="Shape_12_copy_1_"><g
         id="Shape_12_copy"><g
           id="g108"><ellipse
             id="ellipse110"
             ry="60.362999"
             rx="74.830002"
             cy="683.54797"
             cx="1163.266" /></g></g></g><g
       id="Shape_12_copy_7_1_"><g
         id="Shape_12_copy_7"><g
           id="g114"><ellipse
             style="fill:#515151"
             id="ellipse116"
             ry="57.360001"
             rx="71.107002"
             cy="683.54797"
             cx="1163.266" /></g></g></g><g
       id="Shape_12_copy_8_1_"><g
         id="Shape_12_copy_8"><g
           id="g120"><ellipse
             style="fill:#4a4a4a"
             id="ellipse122"
             ry="37.025002"
             rx="45.897999"
             cy="688.94897"
             cx="1165.399" /></g></g></g><g
       id="Shape_12_copy_4_1_"><g
         id="Shape_12_copy_4"><g
           id="g126"><ellipse
             id="ellipse128"
             ry="77.369003"
             rx="93.945"
             cy="648.099"
             cx="826.08197" /></g></g></g><g
       id="Shape_12_copy_5_1_"><g
         id="Shape_12_copy_5"><g
           id="g132"><ellipse
             style="fill:#515151"
             id="ellipse134"
             ry="75.376999"
             rx="91.527"
             cy="648.09698"
             cx="826.08197" /></g></g></g><g
       id="Shape_15_1_"><g
         id="Shape_15"><g
           id="g138"><ellipse
             id="ellipse140"
             ry="70.967003"
             rx="87.538002"
             cy="657.58801"
             cx="823.979" /></g></g></g><g
       id="Shape_15_copy_1_"><g
         id="Shape_15_copy"><g
           id="g144"><ellipse
             style="fill:#515151"
             id="ellipse146"
             ry="68.697998"
             rx="84.737999"
             cy="657.58899"
             cx="823.979" /></g></g></g><g
       id="Shape_14_1_"><g
         id="Shape_14"><g
           id="g150"><path
             id="path152"
             d="m 908.091,637.662 c 0,0 -29.34,-0.686 -41.231,-13.424 -11.892,-12.739 -11.401,-33.105 -11.401,-33.105 0,0 -16.461,-4.181 -31.472,-4.598 -15.558,-0.432 -30.371,4.613 -30.371,4.613 0,0 1.699,21.69 -10.193,34.43 -11.892,12.738 -42.455,10.893 -42.455,10.893 0,0 -4.113,10.239 -4.113,20.857 0,11.433 4.8,23.646 4.8,23.646 0,0 30.041,-2.025 41.083,9.015 11.043,11.04 9.851,33.76 9.851,33.76 0,0 17.824,4.8 34.156,4.8 16.789,0 34.154,-6.857 34.154,-6.857 0,0 -2.696,-10.635 10.045,-29.318 12.741,-18.683 37.671,-17.017 37.671,-17.017 0,0 2.263,-8.428 2.472,-18.036 0.214,-9.921 -2.996,-19.659 -2.996,-19.659 z"
             inkscape:connector-curvature="0" /></g></g></g><g
       id="Shape_14_copy_1_"><g
         id="Shape_14_copy"><g
           id="g156"><path
             style="fill:#515151"
             id="path158"
             d="m 905.756,638.214 c 0,0 -28.526,-0.667 -40.088,-13.052 -11.562,-12.386 -11.084,-32.187 -11.084,-32.187 0,0 -16.004,-4.064 -30.598,-4.47 -15.127,-0.42 -29.528,4.485 -29.528,4.485 0,0 1.651,21.088 -9.91,33.474 -11.562,12.385 -41.276,10.59 -41.276,10.59 0,0 -4,9.955 -4,20.278 0,11.115 4.667,22.99 4.667,22.99 0,0 29.207,-1.97 39.942,8.765 10.736,10.733 9.577,32.822 9.577,32.822 0,0 17.33,4.666 33.209,4.666 16.322,0 33.206,-6.666 33.206,-6.666 0,0 -2.622,-10.34 9.766,-28.504 12.387,-18.165 36.624,-16.545 36.624,-16.545 0,0 2.2,-8.194 2.403,-17.535 0.21,-9.643 -2.91,-19.111 -2.91,-19.111 z"
             inkscape:connector-curvature="0" /></g></g></g><g
       id="Shape_13_1_"><g
         id="Shape_13"><g
           id="g162"><circle
             id="circle164"
             r="4.0570002"
             cy="649.42999"
             cx="1163.908" /></g></g></g><g
       id="Shape_13_copy_1_"><g
         id="Shape_13_copy"><g
           id="g168"><circle
             id="circle170"
             r="4.0570002"
             cy="727.047"
             cx="1163.908" /></g></g></g><g
       id="Shape_13_copy_2_1_"><g
         id="Shape_13_copy_2"><g
           id="g174"><circle
             id="circle176"
             r="4.0570002"
             cy="691.64001"
             cx="1214.928" /></g></g></g><g
       id="Shape_13_copy_3_1_"><g
         id="Shape_13_copy_3"><g
           id="g180"><circle
             id="circle182"
             r="4.0570002"
             cy="691.64001"
             cx="1116.2889" /></g></g></g><g
       id="Shape_13_copy_4_1_"><g
         id="Shape_13_copy_4"><g
           id="g186"><circle
             id="circle188"
             r="4.0570002"
             cy="480.79401"
             cx="643.5" /></g></g></g><g
       id="Shape_12_copy_9_1_"><g
         id="Shape_12_copy_9"><g
           id="g192"><ellipse
             id="ellipse194"
             ry="60.362999"
             rx="83.491997"
             cy="486.30499"
             cx="648.11798" /></g></g></g><g
       id="Shape_12_copy_10_1_"><g
         id="Shape_12_copy_10"><g
           id="g198"><ellipse
             style="fill:#424242"
             id="ellipse200"
             ry="58.657001"
             rx="81.133003"
             cy="486.30499"
             cx="648.11798" /></g></g></g><g
       id="Shape_12_copy_11_1_"><g
         id="Shape_12_copy_11"><g
           id="g204"><ellipse
             id="ellipse206"
             ry="60.362999"
             rx="74.830002"
             cy="520.31299"
             cx="649.65997" /></g></g></g><g
       id="Shape_12_copy_12_1_"><g
         id="Shape_12_copy_12"><g
           id="g210"><ellipse
             style="fill:#515151"
             id="ellipse212"
             ry="57.360001"
             rx="71.107002"
             cy="520.31299"
             cx="649.65997" /></g></g></g><g
       id="Shape_12_copy_13_1_"><g
         id="Shape_12_copy_13"><g
           id="g216"><ellipse
             style="fill:#4a4a4a"
             id="ellipse218"
             ry="37.025002"
             rx="45.897999"
             cy="526.71301"
             cx="650.79401" /></g></g></g><g
       id="Shape_13_copy_8_1_"><g
         id="Shape_13_copy_8"><g
           id="g222"><circle
             id="circle224"
             r="4.0570002"
             cy="565.81299"
             cx="650.30298" /></g></g></g><g
       id="Shape_13_copy_9_1_"><g
         id="Shape_13_copy_9"><g
           id="g228"><circle
             id="circle230"
             r="4.0570002"
             cy="528.40399"
             cx="700.32202" /></g></g></g><g
       id="Shape_13_copy_10_1_"><g
         id="Shape_13_copy_10"><g
           id="g234"><circle
             id="circle236"
             r="4.0570002"
             cy="528.40399"
             cx="602.68402" /></g></g></g><g
       id="Shape_13_copy_11_1_"><g
         id="Shape_13_copy_11"><g
           id="g240"><circle
             id="circle242"
             r="4.0570002"
             cy="487.595"
             cx="650.30298" /></g></g></g><g
       style="fill:#ffcc00;stroke:#000000;stroke-width:0;stroke-miterlimit:4;stroke-dasharray:none;stroke-opacity:1"
       id="Shape_11_1_"><g
         style="fill:#ffcc00;stroke:#000000;stroke-width:0;stroke-miterlimit:4;stroke-dasharray:none;stroke-opacity:1"
         id="g246"><path
           style="fill:#ffcc00;stroke:#000000;stroke-width:0;stroke-miterlimit:4;stroke-dasharray:none;stroke-opacity:1"
           id="ellipse248"
           transform="matrix(0.9811,-0.1937,0.1937,0.9811,-50.6621,270.8244)"
           d="m 1404.198,394.45499 c 0,20.88796 -20.0428,37.821 -44.767,37.821 -24.7241,0 -44.767,-16.93304 -44.767,-37.821 0,-20.88796 20.0429,-37.821 44.767,-37.821 24.7242,0 44.767,16.93304 44.767,37.821 z"
           inkscape:connector-curvature="0" /></g></g><g
       style="stroke:#000000;stroke-width:0;stroke-miterlimit:4;stroke-dasharray:none;stroke-opacity:1"
       id="Shape_11_copy_1_"><g
         style="stroke:#000000;stroke-width:0;stroke-miterlimit:4;stroke-dasharray:none;stroke-opacity:1"
         id="Shape_11_copy"><g
           style="stroke:#000000;stroke-width:0;stroke-miterlimit:4;stroke-dasharray:none;stroke-opacity:1"
           id="g252"><path
             style="fill:#54ff00;stroke:#000000;stroke-width:0;stroke-miterlimit:4;stroke-dasharray:none;stroke-opacity:1"
             id="path254"
             d="m 1398.453,535.242 c -3.666,-19.884 -26.784,-32.626 -51.637,-28.459 -24.853,4.167 -42.027,23.663 -38.362,43.547 3.666,19.884 26.784,32.626 51.637,28.459 24.852,-4.166 42.028,-23.663 38.362,-43.547 z"
             inkscape:connector-curvature="0" /></g></g></g><g
       style="stroke:#000000;stroke-width:0;stroke-miterlimit:4;stroke-dasharray:none;stroke-opacity:1"
       id="Shape_11_copy_3_1_"><g
         style="stroke:#000000;stroke-width:0;stroke-miterlimit:4;stroke-dasharray:none;stroke-opacity:1"
         id="Shape_11_copy_3"><g
           style="stroke:#000000;stroke-width:0;stroke-miterlimit:4;stroke-dasharray:none;stroke-opacity:1"
           id="g258"><path
             style="fill:#0006ff;stroke:#000000;stroke-width:0;stroke-miterlimit:4;stroke-dasharray:none;stroke-opacity:1"
             id="path260"
             d="m 1300.955,469.078 c -1.63,-19.144 -21.928,-33.294 -45.336,-31.606 -23.408,1.688 -41.063,18.576 -39.432,37.72 1.631,19.144 21.929,33.294 45.336,31.606 23.409,-1.689 41.063,-18.576 39.432,-37.72 z"
             inkscape:connector-curvature="0" /></g></g></g><g
       style="fill:#ff0000;fill-opacity:1;stroke:#000000;stroke-width:0;stroke-miterlimit:4;stroke-dasharray:none;stroke-opacity:1"
       id="Shape_11_copy_2_1_"><g
         style="fill:#ff0000;fill-opacity:1;stroke:#000000;stroke-width:0;stroke-miterlimit:4;stroke-dasharray:none;stroke-opacity:1"
         id="Shape_11_copy_2"><g
           style="fill:#ff0000;fill-opacity:1;stroke:#000000;stroke-width:0;stroke-miterlimit:4;stroke-dasharray:none;stroke-opacity:1"
           id="g264"><path
             style="fill:#ff0000;fill-opacity:1;stroke:#000000;stroke-width:0;stroke-miterlimit:4;stroke-dasharray:none;stroke-opacity:1"
             id="path266"
             d="m 1489.496,448.063 c -5.94,-17.563 -29.05,-25.398 -51.616,-17.501 -22.566,7.896 -36.044,28.536 -30.104,46.099 5.94,17.563 29.05,25.397 51.616,17.501 22.567,-7.898 36.046,-28.537 30.104,-46.099 z"
             inkscape:connector-curvature="0" /></g></g></g><g
       id="Shape_10_1_"><g
         id="Shape_10"><g
           id="g288"><path
             style="fill:#bfbfbf"
             id="path290"
             d="m 1147.108,257.181 c -5.836,1.444 -277.497,4.142 -296.769,-0.851 -49.543,-12.832 -93.561,-25.355 -93.561,-25.355 l 0,2.258 c 0,0 30.28,10.184 92.71,26.499 24.125,6.305 276.134,5.101 297.619,0.85 58.403,-11.555 104.167,-27.206 104.167,-27.206 l 0,-3.4 c 0,-0.001 -47.31,13.137 -104.166,27.205 z"
             inkscape:connector-curvature="0" /></g></g></g><g
       id="Shape_10_copy_1_"><g
         id="Shape_10_copy"><g
           id="g294"><path
             style="fill:#bfbfbf"
             id="path296"
             d="m 1254.031,285.813 c 0,0 -68.557,37.949 -121.163,59.091 -5.162,2.075 -67.258,4.26 -131.842,3.664 -64.69,-0.596 -131.872,-3.979 -140.794,-8.285 -46.656,-22.522 -108.234,-57.266 -108.234,-57.266 l 0,3.17 c 0,0 43.289,26.046 104.938,56.935 11.394,5.709 77.495,7.789 143.724,8.535 62.521,0.703 124.938,-0.289 134.91,-3.998 60.2,-22.388 120.772,-59.741 120.772,-59.741 l -2.311,-2.105 z"
             inkscape:connector-curvature="0" /></g></g></g><g
       id="Shape_4_1_"><g
         id="Shape_4"><g
           id="g300"><path
             id="path302"
             d="m 757.653,231.25 c -7.653,-8.502 -66.403,-0.94 -121.536,7.062 -50.064,7.266 -81.632,21.451 -89.285,29.103 -7.653,7.652 -20.455,41.083 -10.268,42.053 11.404,1.086 54.563,-17.311 104.759,-22.732 58.013,-6.266 106.777,2.487 111.228,-1.072 8.504,-6.804 12.755,-45.912 5.102,-54.414 z"
             inkscape:connector-curvature="0" /></g></g></g><g
       id="Shape_4_copy_1_"><g
         id="Shape_4_copy"><g
           id="g306"><path
             style="fill:#ffffff"
             id="path308"
             d="m 754.453,233.818 c -7.384,-7.711 -64.543,-0.376 -117.737,6.88 -48.303,6.59 -79.642,20.945 -87.025,27.885 -7.383,6.94 -21.236,36.719 -11.407,37.599 11.003,0.984 55.026,-18.558 103.456,-23.475 55.973,-5.683 104.45,3.209 108.744,-0.02 8.204,-6.168 11.353,-41.159 3.969,-48.869 z"
             inkscape:connector-curvature="0" /></g></g></g><g
       id="Shape_2_copy_3_1_"><g
         id="Shape_2_copy_3"><g
           id="g324"><path
             id="path326"
             d="m 717.401,118.461 c -2.66,-7.82 -65.854,-3.199 -71.749,4.137 -3.636,5.803 -0.385,22.04 -3.439,42.851 -4.834,32.925 -12.579,62.965 -12.579,62.965 l 76.318,-6.011 c 0,0 11.143,-15.015 12.757,-34.373 2.06,-24.692 3.374,-55.806 -1.308,-69.569 z"
             inkscape:connector-curvature="0" /></g></g></g><g
       id="Shape_2_copy_1_"><g
         id="Shape_2_copy"><g
           id="g330"><path
             style="fill:#ffffff"
             id="path332"
             d="m 715.494,120.847 c -2.54,-7.468 -62.883,-3.055 -68.513,3.95 -3.472,5.541 -0.367,21.046 -3.285,40.918 -4.615,31.44 -12.011,60.126 -12.011,60.126 l 74.045,-4.97 c 0,0 9.41,-14.661 10.941,-32.748 2.008,-23.708 3.347,-53.977 -1.177,-67.276 z"
             inkscape:connector-curvature="0" /></g></g></g><g
       id="g336"><path
         style="fill:#7f7f7f"
         id="path338"
         d="m 710.209,120.55345 c -0.80537,2.1069 -0.4558,34.06424 -1.93622,56.89409 -1.48042,22.82985 -5.74056,43.63985 -5.74056,43.63985 l 3.20433,-0.20384 c 0,0 4.9504,-30.36105 5.50265,-43.08518 0.55225,-12.72413 1.4776,-54.2043 2.3758,-55.94592 0.89819,-1.74162 1.35741,-1.78693 1.35741,-1.78693 0,0 -0.57393,-0.5527 -1.36153,-0.8981 -0.7876,-0.3454 -1.91395,-0.69094 -1.91395,-0.69094 0,0 -0.68256,-0.0299 -1.48793,2.07697 z"
         inkscape:connector-curvature="0" /></g><g
       id="Shape_4_copy_2_1_"><g
         id="Shape_4_copy_2"><g
           id="g342"><path
             id="path344"
             d="m 1459.971,267.414 c -7.653,-7.651 -39.221,-21.837 -89.285,-29.103 -55.133,-8.002 -113.883,-15.563 -121.536,-7.062 -7.653,8.501 -3.401,47.61 5.103,54.412 4.45,3.56 53.214,-5.193 111.228,1.072 50.195,5.422 93.354,23.818 104.759,22.732 10.186,-0.968 -2.616,-34.399 -10.269,-42.051 z"
             inkscape:connector-curvature="0" /></g></g></g><g
       id="Shape_4_copy_3_1_"><g
         id="Shape_4_copy_3"><g
           id="g348"><path
             style="fill:#ffffff"
             id="path350"
             d="m 1457.112,268.583 c -7.384,-6.939 -38.723,-21.295 -87.025,-27.885 -53.194,-7.256 -110.354,-14.591 -117.737,-6.88 -7.384,7.71 -4.234,42.7 3.97,48.869 4.294,3.229 52.771,-5.663 108.744,0.02 48.43,4.917 92.453,24.459 103.456,23.475 9.829,-0.88 -4.024,-30.66 -11.408,-37.599 z"
             inkscape:connector-curvature="0" /></g></g></g><g
       id="Shape_2_copy_4_1_"><g
         id="Shape_2_copy_4"><g
           id="g366"><path
             id="path368"
             d="m 1364.59,165.448 c -3.055,-20.811 0.196,-37.048 -3.439,-42.851 -5.896,-7.336 -69.089,-11.957 -71.749,-4.137 -4.682,13.763 -3.367,44.877 -1.308,69.568 1.614,19.358 12.756,34.373 12.756,34.373 l 76.319,6.011 c 0,0.001 -7.745,-30.039 -12.579,-62.964 z"
             inkscape:connector-curvature="0" /></g></g></g><g
       id="Shape_2_copy_5_1_"><g
         id="Shape_2_copy_5"><g
           id="g372"><path
             style="fill:#ffffff"
             id="path374"
             d="m 1363.105,165.715 c -2.917,-19.872 0.188,-35.377 -3.284,-40.918 -5.63,-7.005 -65.973,-11.418 -68.513,-3.95 -4.524,13.3 -3.185,43.568 -1.178,67.276 1.53,18.087 10.941,32.748 10.941,32.748 l 74.045,4.97 c 10e-4,0 -7.394,-28.686 -12.011,-60.126 z"
             inkscape:connector-curvature="0" /></g></g></g><g
       id="g4804"
       transform="matrix(-1,0,0,1,2006.2538,-0.15857603)"><g
         id="g4806"><path
           style="fill:#7f7f7f"
           id="path4808"
           d="m 710.209,120.55345 c -0.86687,1.86425 -0.4558,34.06424 -1.93622,56.89409 -1.48042,22.82985 -6.29298,43.78946 -6.29298,43.78946 l 3.21584,-0.18082 c 0,0 5.49131,-30.53368 6.04356,-43.25781 0.55225,-12.72413 1.4776,-54.2043 2.3758,-55.94592 0.89819,-1.74162 0.91038,-1.52103 0.91038,-1.52103 0,0 -0.12573,-0.18116 -0.76754,-0.62625 -0.64182,-0.44509 -2.39923,-1.00873 -2.39923,-1.00873 0,0 -0.28274,-0.007 -1.14961,1.85701 z"
           inkscape:connector-curvature="0" /></g></g></g><g
     id="g4810"
     transform="translate(-426.15225,-114.39641)"><g
       id="g4812"><g
         id="g4814" /></g></g></svg>